<svg xmlns="http://www.w3.org/2000/svg" width="82.281" height="71.996" viewBox="0 0 82.281 71.996">
  <path id="wallet" d="M72,44.856V42.285A10.284,10.284,0,0,0,61.711,32H15.428A15.428,15.428,0,0,0,0,47.428V88.568A15.428,15.428,0,0,0,15.428,104H72A10.284,10.284,0,0,0,82.281,93.711V55.142A10.284,10.284,0,0,0,72,44.856Zm2.571,48.854A2.575,2.575,0,0,1,72,96.282H15.428a7.722,7.722,0,0,1-7.714-7.714V47.428a7.722,7.722,0,0,1,7.714-7.714H61.711a2.575,2.575,0,0,1,2.571,2.571v5.143H18a2.571,2.571,0,0,0,0,5.143H72a2.575,2.575,0,0,1,2.571,2.571ZM61.711,68a5.143,5.143,0,1,0,5.143,5.143A5.143,5.143,0,0,0,61.711,68Z" transform="translate(0 -32)" fill="#536d93"/>
</svg>
