<?xml version="1.0" encoding="UTF-8"?>
<svg xmlns="http://www.w3.org/2000/svg" xmlns:xlink="http://www.w3.org/1999/xlink" width="469px" height="120px" viewBox="0 0 469 120" version="1.1">
    
    <title>Algorand_Full logo_black_small</title>
    <desc>Created with Sketch.</desc>
    <g id="Page-1" stroke="none" stroke-width="1" fill="none" fill-rule="evenodd">
        <g id="Algorand_Full-logo_black_small" fill="#022137" fill-rule="nonzero">
            <polygon id="Path" points="116.5 23.8 116.5 95.4 101.9 95.4 101.9 23.8"/>
            <path d="M176,47.1 L176,95.5 C176,110.5 164.3,119.7 150,119.7 C136.2,119.7 125.9,111.1 124.9,99 L139.4,99.1 C140,104.2 144.5,106.5 150.5,106.5 C156.1,106.5 161.4,103.5 161.4,95.6 L161.4,89.5 C157.7,91.9 152.9,93.3 147.6,93.3 C134.3,93.3 123.6,82.5 123.6,70.1 C123.6,55.7 134.3,46 147.6,46 C152.9,46 157.7,47.4 161.4,49.8 L161.4,47.2 L176,47.1 Z M161.4,75.6 L161.4,63.8 C158.4,59.5 154.3,58 150.2,58 C143,58 138.1,62.8 138.1,70.1 C138.1,75.5 143.1,81.3 150.2,81.3 C154.3,81.4 158.5,79.9 161.4,75.6 Z" id="Shape"/>
            <path d="M234.2,70.7 C234.2,85.6 223.2,96.2 208.4,96.2 C193.5,96.2 182.5,85.6 182.5,70.7 C182.5,55.9 193.5,45.1 208.4,45.1 C223.2,45.1 234.2,55.9 234.2,70.7 Z M220.1,70.7 C220.1,63.7 215.5,58 208.4,58 C201.2,58 196.6,63.7 196.6,70.7 C196.6,77.9 201.2,83.3 208.4,83.3 C215.5,83.2 220.1,77.9 220.1,70.7 Z" id="Shape"/>
            <path d="M324.8,47.2 L324.8,95.3 L310.5,95.4 L310.5,92.7 C306.8,95.1 302,96.6 296.7,96.6 C283.4,96.6 272.7,85.3 272.7,71.4 C272.7,57.4 283.4,46.1 296.7,46.1 C302,46.1 306.8,47.6 310.5,50 L310.5,47.3 L324.8,47.2 Z M310.4,78.7 L310.4,64 C307.4,59.7 303.2,58.5 299,58.5 C291.7,58.5 286.6,64.4 286.6,71.4 C286.6,78.3 291.7,84.2 299,84.2 C303.2,84.2 307.4,83 310.4,78.7 Z" id="Shape"/>
            <path d="M383.6,69.3 L383.6,95.4 L369.5,95.4 L369.5,71 C369.5,63.1 365.6,59 358.6,59 C355,59 350.9,61.1 347.5,65.1 L347.5,95.4 L333.1,95.4 L333.1,47.3 L347.5,47.3 L347.5,50.9 C351.4,47.8 356,46.1 361.4,46.1 C374.2,46.1 383.6,55.1 383.6,69.3 Z" id="Path"/>
            <g id="Group" transform="translate(447.000000, 23.000000)">
                <polygon id="Path" points="9.5 2.6 5.9 2.6 5.9 11.1 3.8 11.1 3.8 2.6 0.2 2.6 0.2 0.7 9.4 0.7 9.4 2.6"/>
                <polygon id="Path" points="21.7 11.2 19.6 11.2 19.6 5.3 16.9 9.6 15.6 9.6 15.6 9.6 12.8 5.2 12.8 11.1 10.7 11.1 10.7 0.7 12.2 0.7 16.2 7 20.2 0.7 21.7 0.7"/>
            </g>
            <g id="lINT7W_10_">
                <polygon id="Path" points="95.2 95.3 80.4 95.3 70.7 59.4 49.9 95.3 33.3 95.3 65.4 39.7 60.2 20.3 16.9 95.3 0.3 95.3 55.2 0.2 69.8 0.2 76.1 23.9 91.1 23.9 80.9 41.7"/>
            </g>
            <path d="M441.7,23.8 L441.7,95.4 L427.1,95.4 L427.1,92.7 C423.4,95.1 418.6,96.6 413.3,96.6 C400,96.6 389.3,85.3 389.3,71.3 C389.3,57.4 400,46.1 413.3,46.1 C418.6,46.1 423.4,47.6 427.1,50 L427.1,23.8 L441.7,23.8 Z M427.1,78.7 L427.1,63.9 C424.1,59.6 419.8,58.4 415.6,58.4 C408.2,58.4 403.1,64.3 403.1,71.3 C403.1,78.4 408.2,84.3 415.6,84.3 C419.8,84.3 424,83.1 427.1,78.7 Z" id="Shape"/>
            <path d="M270,59.4 C266.8,59.8 259.4,60.2 255,66.2 L255,95.4 L240.6,95.4 L240.6,47.4 L255,47.4 L255,51 C258.3,48.2 263.2,46.5 270,47.2" id="Path"/>
        </g>
    </g>
</svg>
