<svg xmlns="http://www.w3.org/2000/svg" width="776.332" height="867.607" viewBox="0 0 776.332 867.607">
  <g id="Group_8" data-name="Group 8" transform="translate(-477.175 -434)">
    <path id="Path_3" data-name="Path 3" d="M721.026,820.857,835,810.357l-16.5,29,32.116,18.114a4,4,0,0,1-1.941,7.484q-54.975.333-80.936.08-29.391-.285-48.56-1.109Zm-320.526-101,30,72-37.8,13.894-39.4,49.064a4,4,0,0,1-7.09-2.983l13.951-115.866Z" transform="translate(131 343)" fill="#012137" fill-rule="evenodd"/>
    <path id="Path_4" data-name="Path 4" d="M836.6,537.357l109.617,67.892a55,55,0,0,1,18.641,74.31L879.6,826.857l-172.1-.037L874.1,658.357l-133-49.5L622,684.142,453.605,849.357,387,689.547l161.1-59.69,90-56,39.5-47Z" transform="translate(131 343)" fill="#fff" fill-rule="evenodd"/>
    <path id="Path_5" data-name="Path 5" d="M874.111,658.811l-164.92,166.76,169.877.036,85.041-146.924a54.25,54.25,0,0,0-18.387-73.3L836.264,537.593,677.83,527.131l-39.333,46.8-90.1,56.063-.136.067L387.887,689.479l65.879,158.067,167.6-164.439.125-.1,119.419-75.483,132.84,49.44,3.661-4.576a.75.75,0,0,1,1.172.937l-3.353,4.19.116.043-.157.159,3.2,2a.75.75,0,1,1-.795,1.272ZM637.5,572.784l-.076.091.178-.154Zm0,0,39.668-47.2,159.566,10.537,109.775,67.99a55.75,55.75,0,0,1,18.9,75.324L879.932,827.107,705.6,827.07,872.65,658.155,741.087,609.19,622.363,684.234,453.234,850.169,385.9,688.615,547.668,628.68Zm-89.834,55.9-.064.041.135-.067Z" transform="translate(131 343)" fill="#012137"/>
    <path id="Path_6" data-name="Path 6" d="M731,380.857l75.088.872,73.346,7.034L1038,398.857l-40.5-184,66.5.5q57.015,211.284,57.23,217.823a46.005,46.005,0,0,1-44.44,47.514L856,464.357l-20.5,69-99.5-4.5Z" transform="translate(131 343)" fill="#fff" fill-rule="evenodd"/>
    <path id="Path_7" data-name="Path 7" d="M836.545,534.157l-106.3-9.111.505-144.947.756.009,75.151.875,73.322,7.032,157.568,10.031L997.065,214.1l68.015.511.14.55c38.13,141.312,57.11,213.536,57.26,217.993a46.769,46.769,0,0,1-45.24,48.288L857.047,465.15ZM731.752,523.669l103.7,8.889,20.5-68.993.6.045,220.715,16.335a45.26,45.26,0,0,0,43.71-46.74c-.15-4.255-19.27-77.061-57.06-217.1l-64.985-.488,40.515,184.054-1-.063-158.588-10.1-73.282-7.031-74.333-.863Z" transform="translate(131 343)" fill="#012137"/>
    <path id="Path_8" data-name="Path 8" d="M788,535.357l48.654,1.312,2.6-10.5L788,524.357Z" transform="translate(131 343)" fill="#012137" fill-rule="evenodd"/>
    <path id="Path_9" data-name="Path 9" d="M537.5,296.857,467.183,532.442A30,30,0,0,0,486,569.33l30,10.527,152-101.5.1-97.5-70.1,27.5,39-111.5-27-65-28.5,14Z" transform="translate(131 343)" fill="#fff" fill-rule="evenodd"/>
    <path id="Path_10" data-name="Path 10" d="M638.452,296.107H537.336l-70.477,236.12a30.751,30.751,0,0,0,19.284,37.811L516.5,580.689l152.644-101.93.107-99-69.609,27.305Zm-100,1.5h97.885L597.147,409.652l70.6-27.694-.1,96L516.29,579.026l-29.65-10.4A29.25,29.25,0,0,1,468.3,532.656Z" transform="translate(131 343)" fill="#012137"/>
    <path id="Path_11" data-name="Path 11" d="M640,322.858l-5.446,23.32L523,317.858l5.048-24Z" transform="translate(131 343)" fill="#fff" fill-rule="evenodd"/>
    <path id="Path_12" data-name="Path 12" d="M640.7,322.261l-6.048,24.257L522.093,318.455l6.048-24.257Zm-1.819,1.092L529.234,296.016l-5.322,21.347L633.555,344.7Z" transform="translate(131 343)" fill="#012137"/>
    <path id="Path_13" data-name="Path 13" d="M535.063,308.806a6.25,6.25,0,1,0,7.577-4.552A6.25,6.25,0,0,0,535.063,308.806Zm1.456.363a4.75,4.75,0,1,1,3.459,5.758A4.749,4.749,0,0,1,536.519,309.169Z" transform="translate(131 343)" fill="#002d6f"/>
    <path id="Path_14" data-name="Path 14" d="M785.025,515.811l-19.952-1.4a8,8,0,0,0-8.538,7.423l-.977,13.966a8,8,0,0,0,7.423,8.538l19.951,1.4a8,8,0,0,0,8.538-7.423l.977-13.966A8,8,0,0,0,785.025,515.811Z" transform="translate(131 343)" fill="#fff"/>
    <path id="Path_15" data-name="Path 15" d="M765.071,514.2l19.951,1.395a8,8,0,0,1,7.423,8.538l-.977,13.966a8,8,0,0,1-8.539,7.423l-19.951-1.395a8,8,0,0,1-7.422-8.539l.976-13.966A8,8,0,0,1,765.071,514.2Zm-.1,1.5a6.5,6.5,0,0,0-6.937,6.031l-.977,13.966a6.5,6.5,0,0,0,6.031,6.937l19.951,1.395a6.5,6.5,0,0,0,6.938-6.03l.976-13.966a6.5,6.5,0,0,0-6.031-6.938Z" transform="translate(131 343)" fill="#012137"/>
    <path id="Path_16" data-name="Path 16" d="M666.067,713.527l.949-413.67h.945V297.8H495V244.377L667.1,91.857h63.878v152.52H780V297.8H730.983v2.062H731v443h-.017v121.52H780v53.418H730.983v40.062H667.961V917.795H495V864.377ZM562.1,864.357h105l-.5-87.5Zm-.1-619.5H667l-.4-88Z" transform="translate(131 343)" fill="#eef5ff" fill-rule="evenodd"/>
    <path id="Path_17" data-name="Path 17" d="M665.713,713.188l.947-413.332a.751.751,0,0,1,.75-.749h.2v-.562H495.395a.75.75,0,0,1-.75-.75V244.377a.751.751,0,0,1,.252-.561L667,91.3a.749.749,0,0,1,.5-.189h63.878a.75.75,0,0,1,.75.75v151.77H780.4a.75.75,0,0,1,.75.75V297.8a.75.75,0,0,1-.75.75H732.128V299.7a.77.77,0,0,1,.017.16v443a.779.779,0,0,1-.017.161V863.627H780.4a.75.75,0,0,1,.75.75v53.418a.75.75,0,0,1-.75.75H732.128v39.312a.75.75,0,0,1-.75.75H668.355a.75.75,0,0,1-.75-.75V918.545H495.395a.75.75,0,0,1-.75-.75V864.377a.747.747,0,0,1,.254-.562ZM667.6,299.107h.75l-.75.75Zm-.393,414.422a.748.748,0,0,1-.254.561L496.145,864.716v52.329h172.21a.749.749,0,0,1,.75.75v39.312h61.523V917.795a.749.749,0,0,1,.75-.75h48.267V865.127H731.378a.749.749,0,0,1-.75-.75V742.857a.765.765,0,0,1,.017-.16V300.018a.775.775,0,0,1-.017-.161V297.8a.749.749,0,0,1,.75-.75h48.267V245.127H731.378a.749.749,0,0,1-.75-.75V92.607H667.785L496.145,244.715v52.33h172.21a.749.749,0,0,1,.75.75v2.062a.749.749,0,0,1-.75.75h-.2ZM562.5,865.107a.75.75,0,0,1-.481-1.325l104.5-87.5a.75.75,0,0,1,1.231.571l.5,87.5a.75.75,0,0,1-.75.754Zm104.246-1.5-.487-85.151L564.564,863.607Zm-104.351-618a.75.75,0,0,1-.483-1.324l104.605-88a.75.75,0,0,1,1.233.57l.4,88a.75.75,0,0,1-.75.753Zm104.246-1.5-.384-85.645L564.451,244.107Z" transform="translate(131 343)" fill="#012137"/>
    <path id="Path_18" data-name="Path 18" d="M637.5,650.857c-96.622,0-142.5-44.8-142.5-126.35,0-81.2,45.878-125.65,142.5-125.65,96.274,0,142.5,44.8,142.5,125.65C780,605.707,733.774,650.857,637.5,650.857Zm-.5-53c55.643,0,81-27.593,81-73.349,0-45.407-25.357-72.651-81-72.651s-81,26.9-81,72.651C556,570.613,581.357,597.857,637,597.857Z" transform="translate(131 343)" fill="#eef5ff"/>
    <path id="Path_19" data-name="Path 19" d="M637.9,651.607c-95.3,0-143.25-43.56-143.25-127.1,0-83.144,47.9-126.4,143.25-126.4,94.983,0,143.25,43.593,143.25,126.4C781.145,607.71,732.839,651.607,637.9,651.607Zm0-1.5c94.145,0,141.75-43.259,141.75-125.6,0-81.943-47.563-124.9-141.75-124.9-94.55,0-141.75,42.621-141.75,124.9C496.145,607.185,543.388,650.107,637.9,650.107Zm-.5-51.5c-54.325,0-81.75-25.939-81.75-74.1,0-47.763,27.392-73.4,81.75-73.4,54.222,0,81.75,25.855,81.75,73.4C719.145,572.451,691.586,598.607,637.4,598.607Zm0-1.5c53.379,0,80.25-25.5,80.25-72.6,0-46.7-26.836-71.9-80.25-71.9-53.551,0-80.25,24.99-80.25,71.9C557.145,571.82,583.881,597.107,637.4,597.107Z" transform="translate(131 343)" fill="#012137"/>
    <path id="Path_20" data-name="Path 20" d="M545.114,629.356C511.36,608.551,495,573.036,495,524.507c0-48.764,16.662-84.274,51.048-104.862l29.54,51.422C562.325,483.509,556,501.656,556,524.508c0,22.273,5.918,40.145,18.309,52.669Zm184.772,0-29.2-52.179C713.082,564.653,719,546.781,719,524.508c0-22.852-6.325-41-19.588-53.441l29.54-51.422C763.338,440.233,780,475.743,780,524.507,780,573.036,763.64,608.551,729.886,629.356Z" transform="translate(131 343)" fill="#012137"/>
    <path id="Path_23" data-name="Path 23" d="M942,231.857l-66.424,12.735q10.887,12.033,27.821,12.645t46.322-3.91Z" transform="translate(131 343)" fill="#fff" fill-rule="evenodd"/>
    <path id="Path_24" data-name="Path 24" d="M925.691,233.012l-.369-1.454L874,244.579l.836.924q11.094,12.259,28.35,12.891,17.016.615,46.463-3.918l-.228-1.483q-29.325,4.512-46.181,3.9-15.974-.577-26.435-11.48Z" transform="translate(131 343)" fill="#012137"/>
    <g id="Group_6" data-name="Group 6" transform="translate(131 343)">
      <path id="Path_25" data-name="Path 25" d="M806.5,380.857l10-40,18.778,2.625A32,32,0,0,0,870.529,320.4l14.943-53.512a41,41,0,0,0-39.49-52.028H812.336a27,27,0,0,0-26.118,20.156L748,380.857Z" fill="#fff"/>
      <g id="Group_5" data-name="Group 5">
        <path id="Path_26" data-name="Path 26" d="M806.5,380.857l10-40,18.778,2.625A32,32,0,0,0,870.529,320.4l14.943-53.512a41,41,0,0,0-39.49-52.028H812.336a27,27,0,0,0-26.118,20.156L748,380.857Z" fill="#fff"/>
        <path id="Path_27" data-name="Path 27" d="M878.864,274.5l5.136-.641-.67,10.366a2.782,2.782,0,0,1-2.957,2.6c-.07,0-.139-.011-.208-.021a3,3,0,0,1-2.553-3.388Z" fill="#012137" fill-rule="evenodd"/>
      </g>
      <path id="Path_28" data-name="Path 28" d="M835.174,344.225A32.749,32.749,0,0,0,871.251,320.6l14.943-53.513a41.752,41.752,0,0,0-40.211-52.979H812.337a27.75,27.75,0,0,0-26.844,20.716L747.028,381.607h60.058l9.978-39.913Zm-29.259,35.882H748.972l37.972-144.9a26.25,26.25,0,0,1,25.393-19.6h33.646a40.253,40.253,0,0,1,38.766,51.076L869.806,320.2a31.248,31.248,0,0,1-34.424,22.544l-19.446-2.718Z" fill="#012137"/>
    </g>
    <g id="Group_7" data-name="Group 7" transform="translate(131 343)">
      <path id="Path_29" data-name="Path 29" d="M825.983,268.841l-2.857-2.858a15.912,15.912,0,0,0-22.376-.126,15.014,15.014,0,0,0-.239,21.23q.248.252.505.492l2.032,1.892q-16.111,6.934-44.048,8.386l26.529-67.75a24,24,0,0,1,22.348-15.25H851.5Q837.61,250.857,825.983,268.841Z" fill="#012137"/>
    </g>
    <path id="Path_30" data-name="Path 30" d="M812,194.357l26-21,18.5,21" transform="translate(131 343)" fill="#fff" fill-rule="evenodd"/>
    <path id="Path_31" data-name="Path 31" d="M788,194.357l16.5,20.5H861l20-20.5Z" transform="translate(131 343)" fill="#fff" fill-rule="evenodd"/>
    <path id="Path_32" data-name="Path 32" d="M837.912,174.892l18.025,20.461,1.126-.992-18.975-21.539-26.559,21.452.942,1.167Z" transform="translate(131 343)" fill="#012137"/>
    <path id="Path_33" data-name="Path 33" d="M787.416,195.328l16.5,20.5a.748.748,0,0,0,.584.279H861a.749.749,0,0,0,.537-.226l20-20.5a.75.75,0,0,0-.537-1.274H788A.75.75,0,0,0,787.416,195.328Zm91.8.279-18.536,19H804.859l-15.293-19Z" transform="translate(131 343)" fill="#012137"/>
    <path id="Path_34" data-name="Path 34" d="M876,275.857l1.5,34-15.5-11.5" transform="translate(131 343)" fill="#fff" fill-rule="evenodd"/>
    <path id="Path_35" data-name="Path 35" d="M752.5,357.857h37.1l1,23.587,13.5-23.587h12.4l-8,24-63.5-.5Z" transform="translate(131 343)" fill="#fff" fill-rule="evenodd"/>
    <path id="Path_36" data-name="Path 36" d="M857.737,273.824l-1.184,8.422a3,3,0,1,1-5.941-.835l1.221-8.689-15.471-2.889a.75.75,0,1,1,.276-1.474l25.5,4.761a.75.75,0,0,1-.276,1.475Zm18.376.792,7.745-1.495a.75.75,0,1,1,.284,1.473l-7.362,1.421,1.469,33.309a.75.75,0,0,1-1.2.636l-2.3-1.7,2.743,9.6a11.257,11.257,0,0,1-7.546-6.821l-.454-1.179a40.644,40.644,0,0,1-19.99,3.831l-13.01-.831,27.346-12.7-2.293-1.7a.75.75,0,0,1,.894-1.2l14.234,10.561-1.43-32.426a.75.75,0,0,1,.716-.782A.78.78,0,0,1,876.113,274.616Z" transform="translate(131 343)" fill="#012137"/>
    <path id="Path_37" data-name="Path 37" d="M790.968,382.469l-10.443,37.377a.75.75,0,0,1-1.445-.4l10.334-36.986-44.42-.35a.75.75,0,0,1-.708-.978l7.5-23.5a.749.749,0,0,1,.714-.522h37.1a.751.751,0,0,1,.75.719l.89,20.991,12.209-21.332a.75.75,0,0,1,.651-.378h12.4a.751.751,0,0,1,.712.988l-8,24a.75.75,0,0,1-.718.512Zm-44.944-1.854,43.81.345-.948-22.353H753.048Zm61.937.488,7.5-22.5H804.54l-12.8,22.368Z" transform="translate(131 343)" fill="#012137"/>
    <path id="Path_38" data-name="Path 38" d="M884.7,244.857h58.8q4.5,20,35,20,6.026,0,14.917-4.391l15.083-.109v-45.5H851A33.931,33.931,0,0,0,884.7,244.857Z" transform="translate(131 343)" fill="#fff" fill-rule="evenodd"/>
    <path id="Path_39" data-name="Path 39" d="M978.4,265.607q6.171,0,15.094-4.393l15.651-.112V214.107H850.052l.1.837A34.682,34.682,0,0,0,884.6,245.607h58.2C946.1,258.948,958.043,265.607,978.4,265.607Zm29.245-50v44.006l-14.506.1-.155.076q-8.748,4.322-14.584,4.314c-20.019,0-31.358-6.479-34.268-19.414l-.132-.586H884.6a33.182,33.182,0,0,1-32.85-28.5Z" transform="translate(131 343)" fill="#012137"/>
    <path id="Path_40" data-name="Path 40" d="M850.459,215.468c9.581,6.844,21.045,6.844,34.278.057l-.684-1.335c-12.767,6.547-23.636,6.547-32.722.057Z" transform="translate(131 343)" fill="#012137"/>
    <path id="Path_41" data-name="Path 41" d="M1032,212.857h-24v91h24Z" transform="translate(131 343)" fill="#fff"/>
    <path id="Path_42" data-name="Path 42" d="M1007.39,212.857h25v91h-25Zm1.5,89.5h22v-88h-22Z" transform="translate(131 343)" fill="#012137"/>
    <path id="Path_43" data-name="Path 43" d="M1019.89,293.607a6.25,6.25,0,1,0-6.25-6.25A6.245,6.245,0,0,0,1019.89,293.607Zm0-1.5a4.75,4.75,0,1,1,4.75-4.75A4.752,4.752,0,0,1,1019.89,292.107Z" transform="translate(131 343)" fill="#012137"/>
    <path id="Path_44" data-name="Path 44" d="M731.5,243.607l-235.5.5,0,1.5,235.5-.5Z" transform="translate(131 343)" fill="#012137"/>
    <path id="Path_45" data-name="Path 45" d="M731.5,297.357l-64.1.5" transform="translate(131 343)" fill="#012137" stroke="#012137" stroke-width="1.5"/>
    <path id="Path_46" data-name="Path 46" d="M710.75,918.607h-21.5v38.25a.75.75,0,0,1-1.5,0v-38.25H668v-1.5h64v1.5H712.25v38.25a.75.75,0,0,1-1.5,0Z" transform="translate(131 343)" fill="#012137"/>
    <path id="Path_47" data-name="Path 47" d="M779.8,863.607H496a.75.75,0,0,0,0,1.5H779.8a.75.75,0,0,0,0-1.5Z" transform="translate(131 343)" fill="#012137"/>
    <path id="Path_48" data-name="Path 48" d="M613,229.857h8a8,8,0,0,1,8,8v58a12,12,0,1,1-24,0v-58A8,8,0,0,1,613,229.857Z" transform="translate(131 343)" fill="#fff" fill-rule="evenodd"/>
    <path id="Path_49" data-name="Path 49" d="M637,229.857h8a8,8,0,0,1,8,8v58a12,12,0,1,1-24,0v-58A8,8,0,0,1,637,229.857Z" transform="translate(131 343)" fill="#fff" fill-rule="evenodd"/>
    <path id="Path_50" data-name="Path 50" d="M661,229.857h8a8,8,0,0,1,8,8v58a12,12,0,1,1-24,0v-58A8,8,0,0,1,661,229.857Z" transform="translate(131 343)" fill="#fff" fill-rule="evenodd"/>
    <path id="Path_51" data-name="Path 51" d="M652.9,298.869a12.5,12.5,0,0,1-24,0,12.5,12.5,0,0,1-24.5-3.512v-57.5a8,8,0,0,1,8-8h9a8,8,0,0,1,7.5,5.21,8,8,0,0,1,7.5-5.21h9a8,8,0,0,1,7.5,5.21,8,8,0,0,1,7.5-5.21h9a8,8,0,0,1,8,8v57.5a12.5,12.5,0,0,1-24.5,3.512Zm-40.5-67.512a6.5,6.5,0,0,0-6.5,6.5v57.5a11,11,0,1,0,22,0v-57.5a6.5,6.5,0,0,0-6.5-6.5Zm24,0a6.5,6.5,0,0,0-6.5,6.5v57.5a11,11,0,1,0,22,0v-57.5a6.5,6.5,0,0,0-6.5-6.5Zm24,0a6.5,6.5,0,0,0-6.5,6.5v57.5a11,11,0,1,0,22,0v-57.5a6.5,6.5,0,0,0-6.5-6.5Z" transform="translate(131 343)" fill="#012137"/>
    <path id="Path_52" data-name="Path 52" d="M607.042,231.7l-23.5,12.5.705,1.325,23.5-12.5Z" transform="translate(131 343)" fill="#012137"/>
    <path id="Path_53" data-name="Path 53" d="M540.818,417.98a6,6,0,0,1,8.2,2.2l28.5,49.363a6,6,0,0,1-10.392,6l-28.5-49.363A6,6,0,0,1,540.818,417.98Zm0,214.121a5,5,0,0,1-1.83-6.83l29.5-51.095a5,5,0,1,1,8.66,5l-29.5,51.095A5,5,0,0,1,540.818,632.1ZM734.136,418.1a5.5,5.5,0,0,1,2.013,7.513l-28,48.5a5.5,5.5,0,0,1-9.526-5.5l28-48.5A5.5,5.5,0,0,1,734.136,418.1Zm-.067,212.773a6,6,0,0,1-8.2-2.2l-28-48.5a6,6,0,1,1,10.392-6l28,48.5A6,6,0,0,1,734.069,630.869Z" transform="translate(131 343)" fill="#fff" fill-rule="evenodd"/>
    <path id="Path_54" data-name="Path 54" d="M541,417.547a6.5,6.5,0,0,1,8.879,2.379l28.5,49.363a6.5,6.5,0,0,1-11.258,6.5l-28.5-49.363A6.5,6.5,0,0,1,541,417.547Zm-1.08,8.129,28.5,49.363a5,5,0,0,0,8.66-5l-28.5-49.363a5,5,0,0,0-8.66,5ZM541,632.168a6.5,6.5,0,0,1-2.379-8.879l28.5-49.363a6.5,6.5,0,0,1,11.258,6.5l-28.5,49.363A6.5,6.5,0,0,1,541,632.168Zm.75-1.3a5,5,0,0,0,6.83-1.83l28.5-49.363a5,5,0,1,0-8.66-5l-28.5,49.363A5,5,0,0,0,541.75,630.869Zm193.5-213.322a6.5,6.5,0,0,1,2.379,8.879l-28.5,49.363a6.5,6.5,0,1,1-11.258-6.5l28.5-49.363A6.5,6.5,0,0,1,735.251,417.547Zm-7.58,3.129-28.5,49.363a5,5,0,1,0,8.66,5l28.5-49.363a5,5,0,0,0-8.66-5Zm7.58,211.492a6.5,6.5,0,0,1-8.879-2.379l-28.5-49.363a6.5,6.5,0,1,1,11.258-6.5l28.5,49.363A6.5,6.5,0,0,1,735.251,632.168Zm-.75-1.3a5,5,0,0,0,1.83-6.83l-28.5-49.363a5,5,0,1,0-8.66,5l28.5,49.363A5,5,0,0,0,734.5,630.869Z" transform="translate(131 343)" fill="#012137"/>
    <path id="Path_55" data-name="Path 55" d="M608.017,294.9a.75.75,0,0,1-1.034-1.087c6.967-6.619,13.466-6.619,19.091.06a.75.75,0,0,1-1.148.967C619.884,288.853,614.383,288.853,608.017,294.9Zm24.5,0a.75.75,0,0,1-1.034-1.087c6.967-6.619,13.466-6.619,19.091.06a.75.75,0,0,1-1.148.967C644.384,288.853,638.883,288.853,632.517,294.9Zm24,0a.75.75,0,0,1-1.034-1.087c6.967-6.619,13.466-6.619,19.091.06a.75.75,0,0,1-1.148.967C668.384,288.853,662.883,288.853,656.517,294.9Z" transform="translate(131 343)" fill="#012137"/>
    <path id="Path_56" data-name="Path 56" d="M666.5,713.357l.447,66.5" transform="translate(131 343)" fill="#012137" stroke="#002d6f" stroke-linejoin="round" stroke-width="1.5"/>
    <path id="Path_57" data-name="Path 57" d="M666.645,92.353l1.5.009-.4,65-1.5-.009Zm21.1-1.245c0-.414.336.5.75.5a.75.75,0,0,1,.75.75l-.25,152c0,.414-.086.5-.5.5s-1-.086-1-.5Zm23.5,1.25a.75.75,0,0,1,1.5,0l-.25,152a.75.75,0,0,1-1.5,0Z" transform="translate(131 343)" fill="#012137"/>
    <path id="algosvg" d="M4.685,27.106l3.92-6.789,3.92-6.765,3.9-6.789.645-1.076.287,1.076,1.2,4.47L17.21,13.553l-3.92,6.765-3.9,6.789h4.685L18,20.318,20.031,16.8l.956,3.514L22.8,27.106h4.207l-1.817-6.789-1.817-6.765L22.9,11.808l2.916-5.044H21.561l-.143-.5L19.935.717,19.744,0H15.657l-.1.143L11.737,6.765l-3.92,6.789-3.9,6.765L0,27.106Z" transform="translate(642 854.294)" fill="#fff"/>
    <path id="algosvg-2" data-name="algosvg" d="M4.685,27.106l3.92-6.789,3.92-6.765,3.9-6.789.645-1.076.287,1.076,1.2,4.47L17.21,13.553l-3.92,6.765-3.9,6.789h4.685L18,20.318,20.031,16.8l.956,3.514L22.8,27.106h4.207l-1.817-6.789-1.817-6.765L22.9,11.808l2.916-5.044H21.561l-.143-.5L19.935.717,19.744,0H15.657l-.1.143L11.737,6.765l-3.92,6.789-3.9,6.765L0,27.106Z" transform="translate(864 854.294)" fill="#fff"/>
  </g>
</svg>
